<svg width="1080" height="286" viewBox="0 0 1080 286" fill="none" xmlns="http://www.w3.org/2000/svg">
<path d="M328.367 229.238C342.612 229.238 353.672 226.637 361.716 221.087C369.593 215.711 373.615 207.733 373.615 197.327C373.615 181.199 361.884 171.834 338.757 169.232L325.853 167.845C319.15 167.151 315.966 164.55 315.966 160.04C315.966 155.184 319.652 152.583 327.026 152.583C334.735 152.583 339.092 155.531 340.098 161.428H370.934C368.085 142.698 353.84 133.159 328.199 133.159C314.625 133.159 304.067 135.761 296.693 140.963C289.319 146.166 285.633 153.624 285.633 163.162C285.633 179.117 296.861 187.962 319.485 190.043L332.557 191.257C338.925 191.951 342.109 194.726 342.109 199.235C342.109 202.01 340.936 204.264 338.757 205.825C336.579 207.56 333.562 208.253 329.708 208.253C321.328 208.253 316.636 204.785 315.63 197.674H283.789C284.795 207.733 289.152 215.364 296.861 220.914C304.57 226.463 314.96 229.238 328.367 229.238Z" fill="#0B217C"/>
<path d="M425.829 225.77V102.289H391.976V225.77H425.829Z" fill="#0B217C"/>
<path d="M480.441 125.008V102.289H446.588V125.008H480.441ZM480.441 225.77V136.281H446.588V225.77H480.441Z" fill="#0B217C"/>
<path d="M560.358 133.679C548.627 133.679 539.578 138.362 533.377 147.554L532.204 136.281H501.201V225.77H535.053V178.25C535.053 173.568 536.226 169.752 538.572 166.804C540.918 163.856 544.102 162.295 548.125 162.295C551.476 162.295 554.158 163.509 556.169 165.764C558.18 168.192 559.185 171.313 559.185 175.476V225.77H593.038V166.978C593.038 156.398 590.189 148.247 584.491 142.351C578.793 136.628 570.749 133.679 560.358 133.679Z" fill="#0B217C"/>
<path d="M672.734 144.952C665.36 137.148 656.646 133.159 646.255 133.159C635.697 133.159 626.983 137.148 620.112 144.952C613.073 153.103 609.722 164.376 609.722 178.597C609.722 192.818 613.073 204.091 619.944 212.069C626.648 220.393 635.53 224.382 646.926 224.382C657.148 224.382 665.36 220.914 671.561 213.803V225.596C671.561 230.105 670.388 233.574 668.209 235.655C665.863 237.909 662.343 238.95 657.316 238.95C650.612 238.95 646.255 236.522 644.077 231.319L611.9 234.267C616.425 253.691 631.005 263.23 655.808 263.23C671.561 263.23 683.627 259.414 692.341 251.784C701.056 244.153 705.413 233.574 705.413 219.873V136.281H673.907L672.734 144.952ZM657.316 197.327C648.601 197.327 644.244 190.911 644.244 178.077C644.244 165.243 648.601 158.653 657.316 158.653C661.673 158.653 665.192 160.561 667.874 164.029C670.555 167.671 671.896 172.354 671.896 178.077C671.896 183.973 670.555 188.656 667.874 192.125C665.192 195.593 661.673 197.327 657.316 197.327Z" fill="#0B217C"/>
<path d="M809.597 133.679C799.039 133.679 790.66 137.668 784.291 145.299V102.289H750.439V225.77H784.291V178.25C784.291 173.568 785.464 169.752 787.811 166.804C790.157 163.856 793.341 162.295 797.363 162.295C800.715 162.295 803.396 163.509 805.407 165.764C807.418 168.192 808.424 171.313 808.424 175.476V225.77H842.276V166.978C842.276 156.398 839.427 148.247 833.729 142.351C828.031 136.628 819.987 133.679 809.597 133.679Z" fill="#0B217C"/>
<path d="M921.134 183.8C921.134 188.656 919.794 192.471 917.448 195.42C915.101 198.368 911.917 199.755 908.063 199.755C904.543 199.755 901.862 198.715 899.851 196.287C897.84 194.032 897.002 190.737 897.002 186.575V136.281H863.15V195.073C863.15 205.825 865.999 213.976 871.697 219.7C877.394 225.596 885.439 228.371 895.829 228.371C907.56 228.371 916.442 223.862 922.81 214.497L923.983 225.77H954.987V136.281H921.134V183.8Z" fill="#0B217C"/>
<path d="M1035.02 133.159C1025.3 133.159 1016.75 136.975 1009.71 144.259V102.289H975.86V225.77H1007.37L1008.37 216.231C1014.57 224.902 1023.29 229.238 1034.35 229.238C1045.58 229.238 1054.63 224.902 1061.5 216.231C1068.2 207.906 1071.55 196.113 1071.55 181.025C1071.55 165.937 1068.03 154.144 1061.33 145.646C1054.46 137.321 1045.74 133.159 1035.02 133.159ZM1023.96 200.796C1019.43 200.796 1015.91 199.062 1013.23 195.42C1010.55 191.778 1009.38 186.748 1009.38 180.505C1009.38 174.435 1010.55 169.579 1013.23 165.764C1015.91 161.948 1019.43 160.04 1023.96 160.04C1032.67 160.04 1037.03 166.978 1037.03 180.505C1037.03 194.032 1032.67 200.796 1023.96 200.796Z" fill="#0B217C"/>
<g clip-path="url(#clip0_18491_12516)">
<path d="M267.298 59C267.298 59 237.768 172.412 175.668 225.93C159.983 241.267 139.177 251.195 116.049 252.89C115.329 252.971 114.609 252.971 113.889 253.052C113.568 253.052 113.328 253.052 113.008 253.132C112.448 253.132 111.888 253.213 111.328 253.213C110.527 253.213 109.647 253.213 108.847 253.213C108.207 253.213 107.487 253.213 106.846 253.213C106.446 253.213 105.966 253.213 105.566 253.132C53.9494 251.357 12.6562 208.656 12.6562 156.187C12.6562 102.589 55.71 59.1614 108.847 59.1614L267.298 59Z" fill="#0B217C"/>
<path d="M108.997 109.128C95.1523 109.128 88.1101 114.536 88.1101 124.061C88.1101 134.878 98.2733 137.622 118.04 142.869C143.888 149.569 160.133 157.802 160.133 182.018C160.133 210.512 137.246 221.329 111.558 221.329C91.9513 221.329 71.7048 215.033 56.5 204.216L67.7836 182.018C72.185 186.458 91.9513 198.243 111.878 198.243C125.722 198.243 132.924 193.4 132.924 184.682C132.924 172.978 119.48 169.749 98.9135 164.018C74.0256 156.914 61.7817 148.519 61.7817 128.258C61.7817 101.217 82.9884 86.6875 109.637 86.6875C127.883 86.6875 143.968 93.5487 155.412 101.379L144.128 122.204C140.927 118.491 124.682 109.128 108.997 109.128Z" fill="white"/>
</g>
<defs>
<clipPath id="clip0_18491_12516">
<rect width="254.641" height="194.132" fill="white" transform="translate(12.6406 59)"/>
</clipPath>
</defs>
</svg>
