<svg width="165" height="48" viewBox="0 0 165 48" fill="none" xmlns="http://www.w3.org/2000/svg">
<path d="M28.9101 0C30.8802 0 32.6269 0.446824 34.1501 1.34047C35.6937 2.23412 36.9123 3.45273 37.806 4.99631L34.668 7.1898C33.9978 6.11336 33.1854 5.28065 32.2308 4.69165C31.2966 4.10266 30.1896 3.80816 28.9101 3.80816C27.9758 3.80816 27.1127 3.97064 26.3206 4.2956C25.5488 4.62057 24.8684 5.07755 24.2794 5.66654C23.7107 6.25554 23.2639 6.95624 22.9389 7.76864C22.614 8.58105 22.4515 9.4747 22.4515 10.4496C22.4515 11.4245 22.614 12.3181 22.9389 13.1305C23.2639 13.9226 23.7107 14.6132 24.2794 15.2022C24.8684 15.7709 25.5488 16.2177 26.3206 16.5426C27.1127 16.8676 27.9758 17.0301 28.9101 17.0301C30.1896 17.0301 31.2966 16.7356 32.2308 16.1466C33.1854 15.5576 33.9978 14.7249 34.668 13.6484L37.806 15.8419C36.9123 17.3855 35.6937 18.6041 34.1501 19.4978C32.6269 20.3914 30.8802 20.8382 28.9101 20.8382C27.4072 20.8382 26.0058 20.5742 24.7059 20.0461C23.406 19.5181 22.2788 18.7869 21.3243 17.8526C20.3697 16.9184 19.608 15.8216 19.0394 14.5624C18.491 13.2829 18.2168 11.9018 18.2168 10.4191C18.2168 8.93648 18.491 7.56554 19.0394 6.30631C19.608 5.02677 20.3697 3.91987 21.3243 2.9856C22.2788 2.05133 23.406 1.32016 24.7059 0.792098C26.0058 0.264033 27.4072 0 28.9101 0Z" fill="black"/>
<path d="M58.8563 20.4727H54.4388L53.3116 17.8526H45.086L43.9588 20.4727H39.5413L48.5285 0H49.869L58.8563 20.4727ZM46.5178 14.471H51.8493L49.1988 7.67725L46.5178 14.471Z" fill="black"/>
<path d="M69.645 0.365584C70.7012 0.365584 71.6659 0.51791 72.5392 0.822563C73.4329 1.12722 74.1945 1.56388 74.8241 2.13257C75.474 2.70126 75.9716 3.3918 76.3169 4.20421C76.6825 4.9963 76.8653 5.8798 76.8653 6.85469C76.8653 7.82958 76.6825 8.71307 76.3169 9.50516C75.9716 10.2973 75.474 10.9878 74.8241 11.5768C74.1945 12.1455 73.4329 12.5923 72.5392 12.9173C71.6659 13.2219 70.7012 13.3743 69.645 13.3743H66.172V20.4727H62.0592V0.365584H69.645ZM66.172 3.99095V9.77935H69.6146C70.5895 9.77935 71.3409 9.51532 71.869 8.98726C72.3971 8.43888 72.6611 7.72802 72.6611 6.85469C72.6611 6.00166 72.3971 5.31111 71.869 4.78305C71.3409 4.25498 70.5895 3.99095 69.6146 3.99095H66.172Z" fill="black"/>
<path d="M84.7177 20.4727H80.6049V0.365584H84.7177V20.4727Z" fill="black"/>
<path d="M104.89 4.08235H98.4311V20.4727H94.3183V4.08235H87.8902V0.365584H104.89V4.08235Z" fill="black"/>
<path d="M123.162 20.4727H118.744L117.617 17.8526H109.391L108.264 20.4727H103.847L112.834 0H114.175L123.162 20.4727ZM110.823 14.471H116.155L113.504 7.67725L110.823 14.471Z" fill="black"/>
<path d="M130.478 16.7559H139.282V20.4727H126.365V0.365584H130.478V16.7559Z" fill="black"/>
<path d="M48.9804 27.1602C50.9505 27.1602 52.6972 27.607 54.2204 28.5006C55.764 29.3943 56.9826 30.6129 57.8763 32.1565L54.7384 34.35C54.0681 33.2735 53.2557 32.4408 52.3011 31.8518C51.3669 31.2628 50.26 30.9683 48.9804 30.9683C48.0462 30.9683 47.183 31.1308 46.3909 31.4558C45.6191 31.7807 44.9387 32.2377 44.3497 32.8267C43.781 33.4157 43.3342 34.1164 43.0092 34.9288C42.6843 35.7412 42.5218 36.6349 42.5218 37.6097C42.5218 38.5846 42.6843 39.4783 43.0092 40.2907C43.3342 41.0828 43.781 41.7733 44.3497 42.3623C44.9387 42.931 45.6191 43.3778 46.3909 43.7028C47.183 44.0278 48.0462 44.1902 48.9804 44.1902C50.26 44.1902 51.3669 43.8957 52.3011 43.3068C53.2557 42.7178 54.0681 41.885 54.7384 40.8086L57.8763 43.0021C56.9826 44.5457 55.764 45.7643 54.2204 46.6579C52.6972 47.5516 50.9505 47.9984 48.9804 47.9984C47.4775 47.9984 46.0761 47.7344 44.7762 47.2063C43.4764 46.6782 42.3491 45.9471 41.3946 45.0128C40.44 44.0785 39.6784 42.9818 39.1097 41.7226C38.5613 40.443 38.2871 39.0619 38.2871 37.5793C38.2871 36.0966 38.5613 34.7257 39.1097 33.4665C39.6784 32.1869 40.44 31.08 41.3946 30.1458C42.3491 29.2115 43.4764 28.4803 44.7762 27.9523C46.0761 27.4242 47.4775 27.1602 48.9804 27.1602Z" fill="black"/>
<path d="M66.2459 43.9161H75.756V47.6328H62.1331V27.5257H66.2459V43.9161Z" fill="black"/>
<path d="M84.7189 47.6328H80.6061V27.5257H84.7189V47.6328Z" fill="black"/>
<path d="M109.796 47.6328H105.683V36.8786L100.595 43.2458H99.2549L94.1976 36.8786V47.6328H90.0848V27.1602H91.4557L99.9251 38.0667L108.455 27.1602H109.796V47.6328Z" fill="black"/>
<path d="M132.549 47.6328H128.131L127.004 45.0128H118.779L117.651 47.6328H113.234L122.221 27.1602H123.562L132.549 47.6328ZM120.21 41.6312H125.542L122.891 34.8374L120.21 41.6312Z" fill="black"/>
<path d="M148.298 31.2425H141.839V47.6328H137.727V31.2425H131.298V27.5257H139.798H148.298V31.2425Z" fill="black"/>
<path d="M164.429 31.2425H155.015V35.3249H161.961V38.8284H155.015V43.9161H164.795V47.6328H150.902V27.5257H164.429V31.2425Z" fill="black"/>
<path d="M2.79121 45.2253C5.67219 45.2253 7.04855 42.5915 7.89119 40.2467L10.7943 32.0565H13.9513L14.3611 30.9011H11.204L11.3708 30.4423C12.1521 28.2503 13.1468 26.4152 15.1307 26.4152C16.5626 26.4152 17.0738 27.4347 16.81 28.2503L17.9765 28.3863L17.98 28.3737C18.3744 26.9658 17.5695 25.2598 15.3334 25.2598C12.4525 25.2598 11.0761 27.8935 10.2507 30.2384L10.0137 30.9011H8.06429L7.65458 32.0565H9.60399L6.75387 40.0428C5.98981 42.2347 4.97782 44.0698 2.9939 44.0698C1.63246 44.0698 1.09181 43.1255 1.28829 42.3274C1.29681 42.2967 1.30562 42.2658 1.31467 42.2347L0.162442 42.1158C-0.254502 43.5091 0.548522 45.2253 2.79121 45.2253Z" fill="black"/>
<path fill-rule="evenodd" clip-rule="evenodd" d="M13.6527 35.7098C13.2234 38.1566 14.7783 40.1107 17.3142 40.1107C20.0745 40.1107 22.8629 37.8848 23.3488 35.1151C23.778 32.6683 22.2059 30.7142 19.6872 30.7142C16.927 30.7142 14.1385 32.9401 13.6527 35.7098ZM14.843 35.7098C15.2097 33.6198 17.3798 31.8696 19.4845 31.8696C21.3304 31.8696 22.4744 33.3139 22.1584 35.1151C21.7918 37.2051 19.6216 38.9553 17.5169 38.9553C15.671 38.9553 14.527 37.511 14.843 35.7098Z" fill="black"/>
<path d="M26.3106 30.9011L25.8837 32.0565H27.8503L25.4451 38.7853H23.5129L23.0859 39.9408H28.1579L28.5848 38.7853H26.6527L28.1307 34.5883C28.9426 33.5009 30.9064 31.6487 32.8253 31.9206L32.05 34.0786H33.2576L34.2938 31.122C32.3763 30.1534 30.4039 31.071 28.9591 32.2265L29.4331 30.9011H26.3106Z" fill="black"/>
</svg>
