<?xml version="1.0" encoding="UTF-8"?>
<svg id="ClimateHack-wide-chapter-logo-SAO_PAULO" data-name="ClimateHack-wide-chapter-logo-SAO PAULO" xmlns="http://www.w3.org/2000/svg" viewBox="0 0 980 385">
  <defs>
    <style>
      .cls-1 {
        fill: #002621;
      }

      .cls-2 {
        fill: #006658;
      }

      .cls-3 {
        fill: #fff;
      }
    </style>
  </defs>
  <g id="Chapter-city-addon">
    <rect id="BG" class="cls-2" y="243.49" width="692.61" height="141.51"/>
    <g>
      <path class="cls-3" d="M93.78,349.07c-8.65,0-15.56-1.98-20.73-5.94-5.16-3.96-7.84-9.74-8.03-17.34h14.33c.26,3.62,1.71,6.34,4.37,8.15,2.65,1.81,5.96,2.72,9.92,2.72s7.08-.84,9.48-2.53c2.4-1.68,3.6-3.89,3.6-6.61,0-2.47-1.09-4.36-3.26-5.68-2.17-1.31-5.22-2.45-9.14-3.41l-7.91-1.97c-6.08-1.47-10.84-3.79-14.28-6.95-3.44-3.16-5.16-7.33-5.16-12.53,0-4.33,1.17-8.11,3.5-11.35,2.33-3.24,5.53-5.75,9.6-7.55,4.07-1.8,8.71-2.69,13.92-2.69s9.94,.91,13.9,2.72,7.05,4.33,9.27,7.55,3.36,6.93,3.43,11.13h-14.24c-.26-2.89-1.49-5.11-3.69-6.69-2.2-1.57-5.14-2.36-8.81-2.36s-6.67,.78-8.71,2.33c-2.04,1.56-3.06,3.54-3.06,5.94,0,2.66,1.15,4.65,3.45,5.96,2.3,1.31,4.98,2.34,8.03,3.08l6.51,1.59c4.02,.93,7.66,2.27,10.91,4.02,3.25,1.75,5.82,4.01,7.72,6.78,1.9,2.77,2.85,6.17,2.85,10.17,0,6.51-2.44,11.71-7.31,15.61-4.87,3.9-11.69,5.84-20.44,5.84Z"/>
      <path class="cls-3" d="M127.25,348.01l24.56-71.66h19.3l25.19,71.66h-16.36l-5.55-16.64h-25.53l-5.36,16.64h-16.26Zm25.29-28.14h18.05l-2.17-6.45c-1.16-3.66-2.32-7.61-3.47-11.88-1.16-4.26-2.36-8.83-3.62-13.71-1.19,4.94-2.33,9.54-3.43,13.8-1.09,4.26-2.19,8.19-3.28,11.78l-2.07,6.45Z"/>
      <path class="cls-3" d="M233.62,348.97c-6.34,0-12.04-1.44-17.11-4.33s-9.07-7.07-12.02-12.55c-2.94-5.48-4.42-12.1-4.42-19.86s1.47-14.44,4.42-19.94c2.94-5.5,6.95-9.69,12.02-12.58,5.07-2.89,10.77-4.33,17.11-4.33s12.08,1.44,17.13,4.33c5.05,2.89,9.05,7.08,11.99,12.58,2.94,5.5,4.42,12.14,4.42,19.94s-1.47,14.42-4.42,19.89c-2.94,5.47-6.94,9.64-11.99,12.53-5.05,2.89-10.76,4.33-17.13,4.33Zm0-13.03c5.6,0,10.09-2.03,13.49-6.08,3.39-4.06,5.09-9.93,5.09-17.63s-1.7-13.63-5.09-17.7c-3.39-4.07-7.89-6.11-13.49-6.11s-10.05,2.04-13.46,6.13c-3.41,4.09-5.11,9.98-5.11,17.68s1.7,13.53,5.11,17.6c3.41,4.07,7.9,6.11,13.46,6.11Z"/>
      <path class="cls-3" d="M306.56,348.01v-71.66h28.04c5.47,0,10.12,1.03,13.95,3.1,3.83,2.07,6.75,4.92,8.76,8.56,2.01,3.64,3.02,7.82,3.02,12.53s-1.02,8.92-3.06,12.53c-2.04,3.61-5.01,6.43-8.9,8.46-3.89,2.04-8.59,3.05-14.09,3.05h-12.98v23.42h-14.72Zm14.72-35.25h10.62c4.5,0,7.83-1.14,9.99-3.42,2.15-2.28,3.23-5.21,3.23-8.8s-1.08-6.54-3.23-8.75c-2.16-2.21-5.5-3.32-10.04-3.32h-10.57v24.29Z"/>
      <path class="cls-3" d="M360.97,348.01l24.56-71.66h19.3l25.19,71.66h-16.36l-5.55-16.64h-25.53l-5.36,16.64h-16.26Zm25.29-28.14h18.05l-2.17-6.45c-1.16-3.66-2.32-7.61-3.47-11.88-1.16-4.26-2.36-8.83-3.62-13.71-1.19,4.94-2.33,9.54-3.43,13.8-1.09,4.26-2.19,8.19-3.28,11.78l-2.07,6.45Z"/>
      <path class="cls-3" d="M465.88,349.02c-5.98,0-11.2-1.09-15.64-3.27-4.44-2.18-7.89-5.23-10.35-9.16s-3.69-8.5-3.69-13.73v-46.51h14.72v45.31c0,4.17,1.36,7.61,4.08,10.32,2.72,2.71,6.35,4.06,10.88,4.06s8.11-1.35,10.83-4.06c2.72-2.71,4.08-6.15,4.08-10.32v-45.31h14.77v46.51c0,5.23-1.25,9.8-3.74,13.73-2.49,3.93-5.96,6.98-10.4,9.16-4.44,2.18-9.62,3.27-15.54,3.27Z"/>
      <path class="cls-3" d="M510.44,348.01v-71.66h14.72v59.5h31.03v12.17h-45.75Z"/>
      <path class="cls-3" d="M595.8,348.97c-6.34,0-12.04-1.44-17.11-4.33-5.07-2.89-9.07-7.07-12.02-12.55-2.94-5.48-4.42-12.1-4.42-19.86s1.47-14.44,4.42-19.94c2.94-5.5,6.95-9.69,12.02-12.58,5.07-2.89,10.77-4.33,17.11-4.33s12.08,1.44,17.13,4.33c5.05,2.89,9.05,7.08,11.99,12.58s4.42,12.14,4.42,19.94-1.47,14.42-4.42,19.89-6.94,9.64-11.99,12.53c-5.05,2.89-10.76,4.33-17.13,4.33Zm0-13.03c5.6,0,10.09-2.03,13.49-6.08,3.39-4.06,5.09-9.93,5.09-17.63s-1.7-13.63-5.09-17.7c-3.39-4.07-7.89-6.11-13.49-6.11s-10.05,2.04-13.46,6.13c-3.41,4.09-5.12,9.98-5.12,17.68s1.71,13.53,5.12,17.6c3.41,4.07,7.9,6.11,13.46,6.11Z"/>
    </g>
  </g>
  <g id="ClimateHack-logo-wide">
    <path id="Base" class="cls-1" d="M980,0H0V243.49H980V0Z"/>
    <g id="ClimateHack_TEXT" data-name="ClimateHack // TEXT">
      <path id="K" class="cls-3" d="M935.09,57.17c-1.51-.53-2.88-.93-4.52-.79-2.33,.13-4.65-.13-6.84-.13-2.47,0-5.06,.26-7.53-.13-3.01-.4-5.89-.53-9.04,.66-.27,1.85-1.1,3.84-.96,5.82,.27,3.04-.41,5.43-2.33,7.68-1.92,2.38-3.83,4.76-5.75,7.15-.14,.13-.14,.4-.27,.53-.82,1.19-1.51,2.38-2.33,3.57-.41,.66-1.37,1.19-1.37,1.85-.27,1.72-1.51,2.65-2.46,3.84-1.1,1.32-2.05,2.65-2.88,4.1-1.37,1.99-2.6,3.97-3.84,5.95,0-1.99,.41-3.84,.55-5.69,.27-3.71,1.64-7.41,.82-11.12,0-.26,.14-.53,.14-.79,.14-.79,.27-1.59,.27-2.38,0-1.06,0-1.99,.14-3.04,0-.4,.41-.66,.41-1.06,.27-3.04,.55-6.09,.68-9.13,0-.53,.14-1.19,.41-1.72,1.37-2.12,1.1-4.5,1.23-6.62-1.37-.13-2.6,0-3.56-.4-1.78-.53-3.15-.26-4.79,.4-1.1,.4-2.47,.4-3.84,.53-1.1,.13-2.33-.79-3.56,.26-.27,.26-1.09-.13-1.5-.13-.68-.13-1.37-.4-1.92-.26-1.37,.13-2.74,.4-4.11,.66-.68,.13-1.37,.4-2.32,.53-.41-.26-1.1-.53-2.19-1.06-.41,10.85-2.19,21.17-3.15,31.76-.96,10.45-3.01,20.91-4.1,31.63,2.46,.13,4.65,.26,6.84,.4-.41,3.71-.68,7.28-.96,10.85-.27,3.44-.55,7.01-.96,10.45-.27,2.51-1.37,5.03-.14,7.54,.14,.26-.14,.79-.27,1.19-.82,2.78-1.78,5.69-2.19,8.47-.82,4.23-1.23,8.6-1.91,12.97-.68,3.97-1.64,7.94-2.33,12.04-.14,1.06,0,2.25,0,3.97,1.23-.53,2.05-.79,2.87-1.19,.27-.13,.55,0,.82,.13,2.05,.26,3.97,.4,6.03,.66,5.47,.53,10.95-2.25,16.57-.13,1.1,.4,1.64-.13,1.78-1.19,.27-3.18,.55-6.22,.68-9.4,.27-3.31,.41-6.62,.96-9.79,.41-3.31,1.23-6.62,1.64-9.92,.27-1.59,.41-2.91,2.05-3.71,1.37-.66,2.6-1.46,3.97-2.12,.96-.4,1.78-.93,2.73-1.32,.41-.13,.96-.4,1.23-.26s.55,.66,.55,1.06c.27,1.99,.55,4.1,.82,6.09,.68,3.84,2.19,7.41,1.78,11.51-.27,1.85,.55,3.84,1.1,5.69,.96,2.78,1.51,5.43,1.37,8.34,0,1.32-.14,2.65-.27,4.37,2.05-1.19,3.56-1.72,5.34-.66,.41,.26,1.37-.13,2.05,0,.96,0,1.78,.4,2.74,.4,2.6-.13,5.34-.93,7.67-.26,2.46,.66,4.38-.4,6.57-.4,.41,0,1.1,.13,1.23-.13,.55-1.06,1.23-.53,1.92-.26,.96,.26,1.78,.66,2.87,.93,0-.53,.14-.79,.14-.93-.82-7.41-1.64-14.82-2.6-22.36-.27-2.25-.41-4.63-1.51-6.48-2.47-4.1-3.7-8.73-4.79-13.23-.41-1.85-.55-3.84-1.37-5.56-2.32-5.56-4.93-10.98-7.39-16.41-.27-.53-.96-.93-1.51-.93-1.91-.13-3.83,0-5.75,0-.14-2.38,.96-3.97,2.74-5.29-.96-1.72-.55-3.31,.96-3.04,2.05,.26,2.6-1.32,3.42-2.25,1.92-2.38,3.42-5.03,5.21-7.41,1.64-2.25,3.01-4.63,4.93-6.62,2.33-2.38,4.11-5.16,5.62-7.94,1.23-2.38,2.73-4.63,3.83-7.15,.55-1.32,.82-2.65,1.23-4.1,.14-.66,.27-1.46,.55-2.12,.68-1.98,1.51-3.97,2.05-6.09,.41-1.72,.55-3.57,.96-5.29,.41-1.72,.95-3.44,1.5-5.03-1.36-.53-2.19-.26-2.87-.53Z"/>
      <path id="C" class="cls-3" d="M843.22,56.25c-2.32-.79-4.65-.13-6.98,0-5.75,.26-11.5,0-17.25-.13-.82,0-1.78-.13-2.6,.13-1.64,.4-3.15,1.06-4.93,1.59,0-2.12-1.37-2.12-2.88-1.99-1.1,.13-2.33,.4-3.29,0-.95-.4-1.78,.13-2.6,0-3.7-.53-7.39-.79-11.09-.66-6.43,.13-9.99,3.84-11.64,9.4-.27,.79-.41,1.59-.68,2.38-.96,3.18-.27,6.35-.55,9.53-.55,4.63-1.64,9.26-2.32,13.89-.96,6.75-1.78,13.5-2.74,20.25-.41,3.04-.82,5.96-1.37,9.13,2.33,.4,4.52,.79,6.98,1.19,0,2.25,.14,4.37,0,6.62-.55,6.62-3.01,13.1-3.56,19.85-.41,4.63-1.1,9.26-.14,13.89,.82,3.84,2.05,7.67,3.15,11.51,.14-.13,.27-.26,.41-.4,.96,.66,1.92,1.32,2.88,1.98-1.1,1.72-.14,2.65,.82,3.44,1.1,.93,2.19,1.85,3.56,2.91,.82-.53,1.64,.13,2.46,.93,4.66,4.37,10.13,5.95,16.57,5.03,.55-.13,1.1-.13,1.64,0,1.37,.4,2.6,.93,3.84-.4,.14-.13,.55,0,.82,0h3.15c1.37-.13,2.74-.53,4.11-.4,4.24,.4,8.49,0,12.73-.4,1.91-.13,3.83,.13,5.89,.26,.27-3.97,.41-7.94,.68-11.91,.14-1.19,.68-2.25,.96-3.44,.14-.53,0-1.06,0-1.59,0-.79-.27-1.59,.14-2.25,.68-1.19,.82-2.25,.68-3.44-.14-1.85-.14-3.84-.41-5.82-.14-.66-.68-1.59-1.23-1.72-2.05-.53-4.11-1.19-6.3-1.32-3.83-.26-7.8-.13-11.63-.13-.27,0-.55-.13-.82-.13-3.01-.66-6.02-.79-9.04-.26-1.37,.26-2.74,.93-4.11,1.32-1.37,.4-2.87,.66-4.52,.93,.14-12.57,3.28-24.35,4.38-36.39h-6.84c.41-2.51,.68-4.9,1.1-7.28,.55-2.51,1.23-5.03,.41-7.54-.14-.26,0-.66,.14-1.06,.41-2.25,.96-4.5,1.23-6.75,.41-3.57,1.37-6.75,5.34-7.94,3.15-1.06,6.43-1.19,9.86-.66,3.01,.4,6.16,.53,9.17,.53,1.1,0,2.19,0,3.29,.4,1.1,.4,2.46,.66,3.56,.26,2.19-.79,4.25-.66,6.3-.4,.68,.13,1.5,0,2.6,0,.14-2.91,.41-5.56,.55-8.34v-.26c1.51-1.46,.41-3.31,.68-5.03,.68-3.44,.96-7.01,1.51-10.45,.14-1.19,.82-2.38,1.1-3.57,.55-2.91-.41-4.23-3.15-5.29Z"/>
      <path id="A" class="cls-3" d="M757.79,178.92c.14-2.91,.41-5.82,.55-8.6,0-.79,.27-1.72,0-2.51-.82-3.44-1.78-6.88-1.92-10.45-.14-2.91-.82-5.69-1.09-8.6-.27-4.63,.55-9.26-.82-13.89-1.1-3.7-.68-7.94-.82-12.04,0-1.98-.82-3.04-2.88-3.04h-5.2c-.14-2.78-.27-5.56-.41-8.34-.27-.13-.68-.13-1.1-.26-.27-2.51-.68-4.9-.55-7.28,.27-10.06-1.37-19.85-2.74-29.64-.68-4.63-1.51-9.26-1.1-14.03,.14-.66,0-1.46,0-2.65-2.87,1.06-5.61,.4-8.35,.26-.68,0-1.23,.4-1.92,.53-.27,.13-.82,.26-.95,.26-1.64-1.32-3.42-.53-5.21-.53-2.88,.13-5.61-.26-7.8-1.85-.82,.4-1.78,.53-2.05,1.06-.68,1.59-2.6,2.51-2.33,4.37,0,.26-.14,.66-.27,.66-1.37,.53-1.1,1.59-1.23,2.78-.14,1.46-.27,3.04-.55,4.5-.41,1.99-.68,4.1-1.51,6.09-1.23,3.18-2.6,6.35-4.25,9.4-.55,.93-1.1,1.72-1.23,2.78-.14,1.32,.14,2.91-1.64,3.7-.14,.13-.14,.53-.27,.93-.82,3.57-1.64,7.01-2.6,10.59-.27,1.19-.82,2.38-1.37,3.57-.82,1.72-1.78,3.18-2.6,4.9-.14,.26,.14,.79,.41,1.46-.96,1.99-1.91,4.5-3.15,7.28h7.39c-2.47,3.7-1.23,8.07-4.25,11.38-1.5,1.72-2.05,4.5-2.87,6.88-.96,3.04-1.78,6.09-2.6,9.13-1.1,3.71-2.19,7.28-3.01,10.98-.68,3.18-1.1,6.35-3.15,9-.41,.53-.55,1.19-.68,1.85-1.1,5.03-2.05,9.92-3.15,14.95-.27,1.06-.27,2.12-.41,3.04,.41,0,.55,.13,.68,.13,4.25,.53,8.35-1.19,12.6,.26,.14,0,.41,0,.68-.13,1.64-.4,3.28-.79,4.93-1.19,.55,.4,1.37,.93,1.78,.66,1.64-.79,3.42-.79,5.2-.53,.68,.13,1.51,.13,1.64,.13,.41-1.72,.68-3.18,.96-4.5,.14-.53,.14-1.06,0-1.59,0-.4-.27-.66-.27-.93,.41-1.99,.82-3.97,1.23-5.82,.14-.79,.27-1.72,.82-2.25,.96-.93,1.23-1.99,1.51-3.31,.55-2.51-.41-5.43,2.19-7.28,.14-.13,.14-.26,.14-.4,.55-2.25,1.23-4.37,1.78-6.62,.14-.53,.41-1.46,.14-1.72-.96-.79-.55-1.59-.14-2.38,1.92-5.16,4.11-10.19,6.98-14.82,.14-.13,.14-.4,.27-.53,1.1-2.65,2.05-5.43,3.15-8.07,.14-.26,.27-.4,.41-.53,.14,1.85,.14,3.57,.27,5.29,.14,1.72,.27,3.57,.82,5.16,.68,1.99,1.1,3.84,.68,5.82-.82,2.91-.82,5.82-.27,8.73,.68,3.04,.96,6.22,.41,9.26,0,.13,.14,.13,.14,.4,.41,0,.82,.13,1.23,.13-.14,1.46-.27,2.91-.27,4.23,.27,3.04,.68,5.95,.82,9,.14,2.65,0,5.43,0,8.07-.27,.4-.68,.79-.96,1.19,.68,.26,1.23,.53,1.91,.93-.27,.93-.54,1.99-1.09,3.31h29.02c.27-2.38,1.1-4.63,0-6.88,.27-.93,.27-1.46,.27-1.85Z"/>
      <path id="H" class="cls-3" d="M670.02,57.17c-.54,0-1.36,.13-1.78-.13-1.51-.79-2.88-.4-4.25,.13-1.37,.4-2.6,.79-3.97-.13-.27-.26-1.1-.13-1.37,0-.96,.66-1.92,.53-3.01,.13-.41-.13-.82-.26-1.23-.13-1.64,.13-3.28,.26-4.93,.66-.82,.13-1.92,.66-2.33,1.32-2.05,2.78-2.6,5.95-2.88,9.26-.14,2.65-.41,5.16-.82,7.67s-1.23,4.76-1.23,7.41c.14,5.56-.68,10.98-.96,16.67,.14,0,.14-.13,0,0-.68,.66-1.37,1.32-2.33,1.85s-2.05,.66-3.15,1.06c-.55,.26-.96,.53-1.51,.79-.55,.26-1.09,.26-1.64,.53-3.15,1.72-6.3,3.57-9.72,5.56,.14-1.85,0-3.57,.27-5.16,.82-5.03,1.91-10.06,2.73-15.09,.55-3.31,.82-6.75,1.1-10.06,.14-2.12,.27-4.23,.27-6.35,.14-2.25,.27-4.5,.41-6.75,0-.66,.14-1.46,.27-1.99,.55-1.72,1.92-3.44,.27-5.16-.14-.13-.14-.53-.14-.66-.14,.13-.14,.26-.27,.26-.41-.26-.82-.53-1.37-.79-.41-.26-.96-.66-1.37-.66-1.91-.26-3.83-.53-5.75-.66-2.05,0-4.24-.13-6.16,.4-3.15,.66-6.16,0-9.31,0s-3.84,.66-4.52,3.44c-.14,.53-.27,1.19-.27,1.72-.27,4.37-.55,8.73-.82,13.1-.14,2.38-.14,4.76-.41,7.15-1.09,7.68-2.19,15.48-3.28,23.16-.68,4.63-1.23,9.26-1.92,14.16,2.47,.13,4.65,.26,7.12,.53-.27,3.44-.55,6.75-.82,10.19-.82,7.54-1.78,15.22-2.6,22.76-.41,3.57-.82,7.15-1.92,10.59-.68,1.72-.96,3.84-.68,5.69,.55,3.84,0,7.54-.96,11.25-.55,1.85-.68,3.84-.96,5.96,1.1-.4,1.92-.53,2.6-.79,.27,.53,.41,1.06,.55,1.46,2.19,0,4.38-1.59,6.43,.26,.27-.53,.41-.93,.68-1.46,.55,.13,.96,.26,1.37,.26,4.1-.66,7.8,.79,11.64,1.59,2.05,.4,2.87,.53,3.83-1.32,.55-.93,.96-1.99,1.23-2.91,.82-3.04,1.51-6.09,2.33-9.13,.14-.26,0-.66,0-.93,0-2.91,0-5.82,.27-8.6,.27-3.04,.96-6.09,1.23-9,.27-2.51,.14-5.03,.41-7.54,.14-1.46,.41-3.31,1.37-4.23,1.64-1.46,3.84-2.51,5.89-3.31,2.73-1.06,5.47-2.12,7.94-3.84,.96-.66,2.19-1.06,3.56-1.72-.41,2.65-.68,4.9-1.23,7.01-.96,3.44-.41,7.15-1.51,10.72-1.37,4.37-1.51,9.13-2.19,13.76-.82,5.56-1.64,10.98-2.33,16.54-.14,1.06,.14,2.25,.27,3.18h1.92v-.13c.68,0,1.23-.13,1.92-.13h2.05c.68,0,1.5-.26,2.19-.13,1.51,.26,2.88,.93,4.38-.26,.14-.13,.82,.26,1.23,.26,.68,0,1.37,.26,1.91,0,1.64-1.06,3.29-.79,3.97,1.06,.68-.66,1.37-1.19,1.78-1.59,1.1,.13,2.47,.53,2.74,.13,1.09-1.19,2.32-2.51,2.73-4.1,.68-2.91,.82-5.95,1.23-8.87,0-.4,.14-.93-.14-1.06-1.78-1.32-1.1-2.65,0-3.97,.14-.13,.27-.53,.27-.66,.27-1.32,.41-2.65,.96-3.84,1.23-3.04,1.92-6.22,1.78-9.53,0-.53,.14-1.06,.27-1.59,.96-3.97,2.46-7.81,1.1-11.91-.14-.26,.14-.53,.27-.93,.27-1.19,.82-2.38,.95-3.57,.41-3.31,.68-6.75,.96-10.06,.14-1.98,.41-4.1,.68-6.35h-6.71c.14-.66,.27-1.06,.41-1.46,.41-2.78,1.1-5.56,1.1-8.2,0-1.72,.41-3.31,.82-4.9,.27-1.06,.14-2.12,.27-3.18,.14-1.99-.27-4.1,.55-5.69,.82-1.85,.96-3.7,1.23-5.69,.27-2.51,.68-4.9,.95-7.41,.14-.66,0-1.19-.14-1.85,0-.26-.14-.53,0-.79,.14-.93,.41-1.85,.41-2.78-.55-6.62,.68-12.97,2.88-19.19-.82-1.19-1.92-1.46-3.15-1.32Z"/>
      <path id="E" class="cls-3" d="M584.75,58.37c-.82,0-1.64,0-2.33-.4-3.01-1.46-6.3-.13-9.31-.66-.14,0-.27,.13-.41,.13-1.51,1.06-3.15,1.72-4.93,.79-.14-.13-.27,0-.55,0-1.51,.13-3.01,.26-4.38,.26-1.51,0-3.15,0-4.93,.13-.14-1.32-1.37-.79-2.33-.53-3.56,.93-6.84,1.32-10.54,.4-3.01-.79-6.3-.66-9.58-.66-1.92,0-3.84,.93-5.61-.26-.14-.13-.55,0-.82,.13-2.05,1.59-4.25-.13-6.57,.53-1.92,.53-4.11-.13-5.48,1.85-.14,.26-.55,.66-.82,.66-1.37,.53-1.64,1.46-1.37,2.65,.68,3.18,0,6.09-1.37,9-.27,.66-.82,1.59-.55,1.99,.96,1.59-.27,2.51-.68,3.84-.14,.4-.55,.79-.41,1.19,.68,4.1-2.6,7.67-1.78,11.78-1.64,8.47-3.15,17.07-4.79,25.54-.55,3.04-.96,5.96-1.51,9.26h4.11c-.55,6.62-.96,13.1-1.51,19.45-.14,2.25-.55,4.63-.96,6.88-.68,3.04-1.64,5.95-1.78,9.26,0,3.71-.82,7.41-2.19,11.12-.68,1.85-.68,4.1-.96,6.09-.14,.53,.14,1.32-.14,1.72-1.1,1.19-.55,2.51-.68,3.84-.14,2.12,1.78,1.72,2.74,2.51,.27,.26,.68,.53,.82,.66,3.01-.26,5.75-.66,8.49-.53,3.56,.13,7.12,.93,10.68,.93,5.75,0,11.5-.53,17.25-.66,4.38-.13,8.76,0,13.28,0,1.78,0,3.42,.13,5.21,.13,.82,0,1.64-.66,2.32-.66,3.01,.26,5.89,.66,8.76,1.32,2.6,.53,3.42-.13,3.29-2.51-.14-2.38,.14-4.9,.27-7.28,0-.26,.41-.66,.55-.93,.14-.26,.27-.66,.27-.93,0-1.19-.27-2.38,.14-3.44,.82-2.12,.41-4.5,1.51-6.62,.68-1.19,.27-2.78,.55-4.23,0-.4,.27-.93,.55-1.19,1.23-1.19,1.36-2.91-.14-3.84-1.23-.66-2.74-1.19-4.11-1.19-2.74,0-5.47,.26-8.21,.53-.27,0-.68,.13-.96,.13-.68,.13-1.23,.53-1.92,.4-2.46-.26-4.79-.79-7.26-1.06-.68-.13-1.51,.13-2.33,.13h-8.63c-.55,.53-1.37,1.06-2.05,1.06-2.73-.13-5.61-.4-8.21-.66,.41-3.18,.68-6.48,1.1-9.79,.68,.26,1.51,.66,2.19,.66,2.05,0,4.11-.26,6.16-.53,1.92-.13,3.84-.4,5.75-.4,1.78,0,3.69,.4,5.47,.53,1.64,.13,3.29-.13,4.93,.79,.82,.53,2.46,.53,3.28,.13,1.92-.93,3.7-.66,5.62-.53,.55,0,1.23,.13,1.78,.13,0-.79-.14-1.46,0-1.99,.41-2.51,.82-5.03,1.23-7.67,.14-1.32-.14-2.78,.14-4.1,.27-1.99,.82-3.97,1.23-5.96,.14-.79,0-1.32-1.1-1.32h-3.56c.14-.93,.27-1.59,.41-2.25,.55-1.59,1.36-3.18,1.78-4.9,.82-3.04-.27-4.37-3.28-5.16-1.64-.53-3.15,.26-4.66,.26-4.1,0-8.08-.13-12.18-.13-2.19,0-4.52,.26-6.71,.4h-1.37c-2.6-.26-5.34-.66-7.94-1.06,.27-1.06,.82-2.25,.82-3.57,.27-3.84,1.37-7.54,.68-11.51-.14-.66,.55-1.46,1.1-2.38,.55-1.85,1.23-3.97,1.92-6.35,.82-.13,1.92-.53,3.01-.79,.54-.13,1.23,0,1.91,.13s1.37,.53,1.92,.4c.96-.13,1.92-.13,2.74-.13,3.15-.13,6.16-.13,9.31,0,3.15,.26,6.43-.26,9.45-.93,5.34-1.32,10.27-.13,15.2,1.99,.14-.4,.41-.66,.55-1.06,.55-1.32,.96-2.78,1.51-4.1,0-.13,.14-.13,.14-.26,.68-2.91,1.64-5.69,2.19-8.6,.55-2.78,.82-5.56,1.23-8.34,0-.13-.14-.26-.14-.53,.14-.66,.27-1.46,.27-2.12,.27-1.46,.68-2.91,.68-4.37,.55-1.85-.96-2.78-2.46-2.65Z"/>
      <path id="T" class="cls-3" d="M500.95,84.03c-.14-1.59,.41-2.65,1.1-3.84,.41-.93,.41-2.12,.55-3.18,0-.66-.27-1.46-.14-2.12,.55-3.31,1.23-6.62,1.92-9.92,.14-.93,.14-1.85,.68-2.51,1.51-1.99,.96-4.9-1.51-5.69-2.88-1.06-5.89-.79-8.9-.13-.68,.13-1.23,.26-1.92,.13-2.05-.13-4.11-.4-6.16-.4-5.89,.13-11.77,.4-17.8,.53-4.38,.13-8.76,.53-13.14-.13-3.83-.53-7.67-.26-11.5,.4-1.92,.26-3.97,.53-5.89,.66-.27,0-.82,0-.96-.26-.82-.93-1.78-.93-2.33,.13-.82,1.59-1.51,3.31-2.05,5.03-.55,1.85-.96,3.84-1.23,5.82-.41,2.51-.55,5.03-.82,7.67-.14,1.46-.27,2.91-.41,4.37-.27,1.85-.55,3.57-.82,5.29-.14,.79-.14,1.59-.41,2.25-.41,1.06-.27,2.25,.82,2.38,2.33,.13,4.79,.26,6.98-.4,4.11-1.06,8.21-1.32,12.19-.93,3.15,.26,3.29,.93,2.74,3.97-.41,2.51-.82,5.03-1.23,7.54-.27,1.99-.41,3.97-.68,5.95-.41,2.25-.82,4.5-1.23,6.75-.14,1.06-.41,1.99-.68,2.91-.82,3.18-1.64,6.22-2.46,9.53h4.38c-.68,4.63-1.1,9.26-1.92,13.76-1.1,6.48-2.6,12.97-3.56,19.59-.55,3.7,0,7.54-1.51,11.25v.13c-.27,1.85-.55,3.57-.96,5.43-.68,3.31-2.05,6.35-1.78,9.79,.82,.13,1.51,.53,2.19,.53,1.64,0,3.15-.13,4.79-.13,4.24,0,8.49-.26,12.6,0,1.37,.13,2.33,0,3.42-.53,1.51,1.46,2.46,1.72,3.56,.66,2.05-1.99,3.01-4.37,3.01-7.28-.14-2.91-.68-5.69,.68-8.47,.82-1.72,.82-3.84,1.1-5.82,.14-1.06,0-2.12,.27-3.04,.68-2.91,1.51-5.69,2.05-8.6,.41-2.12,.55-4.37,.82-6.62,.96-6.09,1.92-12.31,3.01-18.39,.14-.79,.27-1.59,.41-2.51h-4.52c.14-.79,.14-1.19,.27-1.72,1.64-5.43,.82-11.12,2.46-16.41,.68-2.25,.82-4.5,1.37-6.88,.41-1.85,1.1-3.71,1.64-5.69,.27-1.06,.55-2.12,.55-3.18-.27-2.91,1.51-3.57,3.97-3.57,1.09,0,2.46-.4,3.42,0,1.92,.93,3.7,.79,5.61,.26,1.64-.53,3.29-.66,5.07-.13,.96,.26,1.92,.13,2.88,.26-.27-1.59,.14-3.04,0-4.5Z"/>
      <path id="A-2" data-name="A" class="cls-3" d="M425.65,178.92c.14-2.91,.27-5.82,.41-8.6,0-.79,.27-1.72,0-2.51-.96-3.57-1.51-7.28-2.05-10.98-.82-5.16-1.23-10.45-.68-15.61,.14-1.06,0-2.12-.41-3.18-.96-2.78-1.64-5.69-1.1-8.6,.14-.4,0-.79,0-1.32-.14-1.99-.41-3.97-.41-5.82,0-1.46-1.1-2.51-2.6-2.51h-5.61c-.14-2.78-.27-5.56-.41-8.34-.27-.13-.68-.13-1.09-.26-.27-2.51-.68-4.76-.55-7.15,.27-9.92-1.23-19.72-2.74-29.51-.68-4.76-1.64-9.53-1.1-14.29,.14-.66,0-1.46,0-2.51-2.87,.79-5.61,.4-8.21,.13-.68,0-1.37,.4-2.05,.53-.27,.13-.82,.26-.96,.13-1.64-1.32-3.56-.53-5.34-.4-2.88,0-5.48-.26-7.67-1.85-.82,.4-1.78,.53-2.05,1.06-.68,1.59-2.6,2.38-2.33,4.37,0,.26-.14,.66-.27,.66-1.37,.53-1.1,1.72-1.23,2.78-.27,1.85-.55,3.84-.82,5.69-.27,1.59-.55,3.18-1.09,4.63-1.23,3.18-2.6,6.22-3.97,9.26-.41,.93-1.37,1.72-1.51,2.91-.14,1.46,.27,3.04-1.64,3.84-.27,.13-.27,.66-.27,1.06-.96,3.84-1.92,7.81-2.88,11.65-.27,.79-.68,1.59-1.1,2.38-.82,1.59-1.78,3.18-2.6,4.76-.14,.26,.27,.93,.41,1.59-.96,2.12-2.05,4.5-3.15,7.15h6.98c-.55,2.25-.96,4.1-1.51,5.95s-.27,4.1-2.33,5.43c-.14,.13-.14,.53-.27,.93-.27,.79-.41,1.59-.68,2.25-.82,2.25-2.05,4.5-2.74,6.75-1.92,6.88-3.7,13.89-5.61,20.78-.27,1.19-.55,2.38-1.23,3.31-1.64,2.25-2.05,4.76-2.46,7.41-.27,1.99-.82,3.84-1.1,5.82-.55,2.91-1.23,5.69-1.92,8.73,1.1,0,2.05-.13,2.88,0,3.42,.4,6.98-1.32,10.41,.26h.55c1.78-.4,3.42-.79,5.07-1.19,.55,.26,1.37,.93,1.78,.79,2.05-1.19,3.97-.93,6.16-.53,.41,.13,.96,0,1.09,0,.41-1.72,.68-3.31,.96-4.76,.14-.53-.14-1.06-.14-1.46,0-.26-.14-.66-.14-.93,.41-1.85,.82-3.84,1.23-5.69,.14-.79,.27-1.72,.68-2.25,1.23-1.19,1.37-2.51,1.64-3.97,.41-2.25-.41-5.03,2.05-6.62,.14-.13,.14-.26,.14-.4,.55-2.38,1.23-4.63,1.78-7.01,.14-.4,.27-1.19,.14-1.32-1.23-.93-.41-1.85-.14-2.65,.41-1.32,.82-2.51,1.51-3.71,1.78-3.7,3.42-7.54,5.61-11.12,1.37-2.12,1.92-4.76,2.87-7.15,.27-.53,.55-1.06,.68-1.59,.27,.4,.27,.66,.27,.93,.27,3.18,.41,6.35,1.1,9.53,.41,1.99,1.1,3.84,.55,5.82-.82,2.78-.82,5.69-.27,8.47,.68,3.18,.96,6.22,.41,9.4,0,.13,.14,.13,.14,.4,.41,0,.82,.13,1.23,.13-.14,1.59-.27,2.91-.14,4.37,.14,1.72,.41,3.57,.55,5.29,.14,2.12,.14,4.1,.27,6.22,.14,1.72,.14,3.44,.27,5.16-.41,.53-.96,1.06-1.51,1.85,1.1,.13,1.64,.13,2.33,.26-.41,1.19-.68,2.12-1.1,3.57h29.16c.27-2.38,1.1-4.63,0-6.88-.14-.79-.14-1.32-.14-1.72Z"/>
      <path id="M" class="cls-3" d="M342.14,116.06c1.1-5.43,2.74-10.85,3.83-16.28,.41-1.99,0-4.23,.41-6.35,.41-2.12,1.78-4.23,2.19-6.35,.96-4.23,1.51-8.34,2.19-12.57,.68-3.84,1.37-7.81,2.05-11.65,.41-2.25,.55-4.37,.82-6.62-.27-.13-.41-.26-.68-.53-1.37,.53-2.6,1.06-3.97,1.59-.14,.13-.41,.26-.55,.13-1.37,0-2.74,0-4.11-.13-.96-.13-1.78-.53-2.88-.79-.14,.13-.41,.53-.82,.93-1.23-1.32-2.33-1.32-3.7-.4-.55,.4-1.23,.53-1.78,.66-1.23,.4-2.05,.13-2.33-.79-1.64-.26-3.01-.53-4.38-.53-.68,0-1.37,.4-1.78,.93-.82,.93-1.37,1.98-1.92,2.91-.55,.93-.96,2.12-1.51,3.04-2.88,4.23-5.75,8.47-8.63,12.7-2.33,3.44-4.65,6.75-7.94,9.4-1.78,1.46-3.15,3.57-4.65,5.43-1.37,1.72-2.6,3.57-3.97,5.56-1.78-2.25-2.19-4.63-2.6-7.01,0-.4,.14-.93-.14-1.06-2.33-1.85-1.51-4.9-2.74-7.28-1.1-2.12-1.23-4.76-1.92-7.15-.14-.66-.55-1.19-.96-1.72-2.19-3.57-4.11-7.15-4.52-11.25-.14-1.72-.14-3.7-1.78-5.03-1.37,.79-2.6,1.59-3.97,2.38,.14-.26,.27-.53,.41-.79-.82-.26-1.78-.66-2.6-.93-.55,.93-1.23,.53-2.19,0-.55-.4-1.78-.79-2.05-.53-.96,.93-1.92,.4-3.01,.26-.96-.13-1.92-.26-2.74-.13-1.78,.13-3.56,1.06-5.34,.13-.14-.13-.41,0-.68,0-1.64,.13-3.42,.26-4.65,.4-.82,.66-1.37,1.46-2.05,1.85-1.92,.93-2.88,2.38-2.33,4.23,1.23,5.03-1.51,9.53-2.19,14.29-.27,2.51-1.37,5.03-1.78,7.67-1.92,10.85-3.97,21.7-5.89,32.55-.55,2.78-.82,5.56-1.23,8.34,.82,.13,1.37,.13,2.05,.26,0,.53-.14,.93-.14,1.32-1.23,7.81-2.33,15.48-3.56,23.29-.27,1.85-.41,3.57-.41,5.43-.27,6.88-2.19,13.37-3.56,19.98-.55,2.91-.96,5.95-1.37,8.87-.14,.53,.14,1.59,.41,1.72,1.64,.4,3.42,.66,5.2,.66,.96,0,1.92-.4,3.01-.4,6.43,.13,12.73,.26,19.17,.4,1.1,0,1.51-.4,1.37-1.46-.14-1.19-.14-2.51,0-3.71,.41-3.44,.96-6.88,1.64-10.32,.14-.66-.68-.93,0-1.85,.96-1.19,.96-3.18,1.37-4.76,.14-.53-.55-1.19-.41-1.59,.96-1.46,.55-2.91-.14-3.84,.41-.93,.96-1.59,1.09-2.25,1.23-8.6,2.46-17.2,3.56-25.67,.27-1.99,.55-3.84,.96-5.82-.82-.13-1.51-.13-2.19-.26,.55-2.25-.27-4.5,.55-6.75,.68-1.85,.68-3.97,.96-6.09,1.1,2.38,2.33,4.63,3.15,7.01,.68,1.59,.82,3.44,1.37,5.16,.14,.4,.82,.93,1.1,.93,1.1,0,1.37,.4,1.78,1.32,.82,2.12,1.37,4.23,2.6,5.96,.68,1.06,1.23,1.85,1.51,3.04,.55,1.99,0,4.1,2.74,5.43,1.64,.79,3.15,1.06,4.79,.93,1.51-.13,3.15-.79,4.52-.53,2.19,.53,3.29-.53,4.52-1.72,1.64-1.72,3.29-3.31,4.79-5.03,2.6-3.04,5.2-5.95,7.94-9.26-.96-.13-1.37-.26-1.92-.4,1.37-1.85,2.74-3.7,4.11-5.43,.14,0,.27,.13,.41,.13-.55,1.85-1.1,3.57-1.64,5.56,.68,.13,1.37,.13,1.92,.26-.27,1.46-.68,2.78-.82,3.97-.14,1.46-.55,2.91-.14,4.23,.41,1.32,0,2.25-.55,3.18-1.1,1.72-1.23,2.65-.14,4.37-.55,1.32-.96,2.51-1.51,4.1,0,.26,.27,1.06,0,1.46-1.37,2.38-1.92,5.03-1.64,7.54,.27,2.78-1.1,5.29-1.1,8.2-.14,4.5-1.51,9-2.33,13.63-.55,3.44-.96,7.01-1.51,10.59h7.67c1.78,0,3.7-.13,5.48-.13,3.97-.13,7.94-.4,12.05-.53,.96,0,1.92-.13,2.88-.13,1.37,0,1.92-.66,2.05-1.99,.27-1.99,.41-3.97,.68-5.96,.55-4.76,.55-9.53,2.19-14.03,.41-1.19,0-2.78,0-4.23,0-.4-.14-.79,0-1.32,.27-1.72,.82-3.44,1.1-5.16,1.1-6.75,2.33-13.37,3.42-20.11,.41-2.65,.82-5.29,1.23-7.94-.82-.13-1.51-.13-2.19-.26,.41-3.18,.41-6.48,.96-9.53Z"/>
      <path id="I" class="cls-3" d="M234.93,62.33c.27-1.59-1.78-3.18-3.29-3.04-1.37,.13-2.19-.4-2.46-1.19h-2.33c-1.1,0-2.19-.26-3.15-.13-1.78,.26-3.56,.26-4.93-.66-.68,.26-1.23,.53-1.78,.79-1.78,.66-3.56-1.06-5.34,.13-.14,.13-.41,0-.55-.13-.96-.93-2.05-.53-3.01-.26-1.23,.26-2.6,.53-4.11,.79-.14,1.59-.14,3.31-.41,4.9-.82,4.9-1.64,9.92-2.46,14.82-.55,3.31-.96,6.62-1.51,9.92-.68,3.57-1.51,7.15-2.19,10.72-.82,4.5-1.51,9-2.33,13.63-.41,2.12-1.1,4.1-1.51,6.22-.41,2.38-.55,4.76-.82,7.28h4.65c-.41,6.48-2.74,12.57-2.6,18.92,0,4.1-1.1,8.34-1.51,12.57-.41,2.91-.41,5.95-1.1,8.87-1.1,5.29-2.88,10.45-3.15,15.88-.14,1.59-.41,3.18-.68,4.76,.41,.13,.55,.13,.82,.13,2.6,0,5.2-.13,7.8,0,2.74,.13,5.48,.4,8.35,.4,2.19,0,4.52,0,6.71-.13,1.51,0,3.01-.4,4.52-.26s2.19-.53,2.46-1.72c.41-2.65,.55-5.29,.82-7.94,0-.66,.27-1.19,.41-1.85,.41-1.59,1.23-3.18,1.37-4.76,.27-2.65-.14-5.29,.41-7.94,.82-3.84,.96-7.67,1.51-11.51,.27-1.72,.41-3.57,.82-5.16,.68-2.25,1.78-4.5,2.33-6.75,.41-1.72,.82-3.57,.14-5.43-.41-1.19,.27-2.78,.68-4.23,.68-2.91,.14-3.84-3.01-3.84h-1.37c.14-.53,.41-1.06,.55-1.59,.27-1.99,.41-3.97,.82-5.96,1.23-5.95,2.46-11.91,3.7-18,.82-3.97,2.33-7.94,2.05-12.17,0-.79,.68-1.59,.96-2.38,.14-.4,.27-.93,.27-1.32,.14-1.46-.41-3.31,.27-4.37,1.23-1.85,1.1-3.71,.96-5.56-.14-3.04,.41-5.82,1.64-8.6,0-1.46,.41-2.65,.55-3.84Z"/>
      <path id="L" class="cls-3" d="M181.13,153.91c-1.23,1.06-2.46,.66-3.7,.26-1.09-.4-2.6,.13-3.56-.79-.14-.13-.55,.13-.82,.13-.55,0-1.23,.13-1.78,.13-5.07-.26-10.27-.53-15.33-.93h-1.92c2.88-8.87,3.97-17.73,4.66-26.86h-4.66c.68-5.69,1.1-11.12,1.92-16.41,.55-3.84,1.92-7.54,2.6-11.38,.55-2.91,.82-5.82,1.23-8.73,.41-2.12,.82-4.1,1.23-6.22,.55-2.78,1.78-5.69,1.78-8.47,0-3.84,.55-7.54,1.51-11.25,.41-1.46,.68-3.04,.96-4.37-1.1-.13-2.05-.4-3.01-.53-.68,0-1.51,0-2.19,.13-.96,0-1.92,.13-2.87,0-1.1-.13-2.05-.53-2.88,.53-.14,.26-.55,.53-.82,.53-2.19-.13-4.52,0-6.71-.53-3.01-.66-6.02-.79-9.04-.79-3.29,0-3.7,.4-3.97,3.57-.55,6.62-1.23,13.23-3.01,19.58-.41,1.46-.55,2.91-.68,4.37-.27,2.38-.14,4.76-.55,7.15-.41,2.91-1.23,5.69-1.78,8.47-1.37,7.01-2.6,14.16-2.6,21.31,0,1.19,.27,2.25,.27,3.57h3.15c-.82,5.43-2.6,10.72-2.05,15.88-.27,.79-.68,1.46-.82,2.12-.96,4.63-2.19,9.26-3.01,13.89-.55,2.91-.55,5.95-.82,8.87-.14,1.32-.55,2.78-.68,4.1-.41,2.65-.55,5.29-.96,7.81-.41,2.51-.96,4.9-1.37,7.41,3.29,.13,6.16,.4,9.04,.53h30.39c.68,0,1.23-.26,1.92-.26h2.6c.96,0,1.92,.13,2.88,.26h.14c1.92,.13,3.97,.4,5.89,.26,1.78-.13,3.56-1.06,4.79,1.06,1.64-1.46,2.33-3.04,2.46-4.9,.14-.66,.27-1.46,.41-2.12,.55-1.85,1.23-3.71,1.51-5.56,.55-3.18,.68-6.35,1.09-9.53,.27-2.12,.96-4.23,1.23-6.35,.14-1.19,.27-2.51,0-3.71,.14-1.85-1.37-2.91-2.05-2.25Z"/>
      <path id="C-2" data-name="C" class="cls-3" d="M115.14,57.17c-2.05-.66-4.24-1.72-6.16-1.32-5.48,1.06-11.09,1.06-16.57,.66-3.7-.26-7.12-.53-10.41,1.46,0,0-.14,0-.27-.13q-.68-1.99-3.01-1.85c-2.05,.13-4.11,.13-6.16-.13-3.29-.4-6.43-.66-9.72-.66s-6.85,.66-9.31,3.18c-3.97,4.23-4.93,9.53-4.93,15.09,0,1.46,.27,2.91,0,4.23-1.78,11.91-3.56,23.82-5.34,35.73-.27,2.12-.55,4.23-.82,6.35,2.46,.4,4.52,.79,6.57,1.19,.14,1.99,.55,3.84,.27,5.56-1.1,7.15-2.33,14.42-3.7,21.57-1.51,7.54-.55,14.69,2.19,21.7,.41,.93,.68,1.85,1.1,2.91,1.64-.53,2.05,1.06,3.01,1.85-.96,.93-.55,1.72,.14,2.38,.68,.66,1.64,1.32,2.46,1.99,.55,.53,.96,1.06,1.51,1.85,1.23-.66,2.05,.13,3.15,1.06,1.51,1.19,3.29,2.38,5.07,3.31,2.6,1.46,5.61,2.25,8.49,1.59,2.88-.53,5.75,1.32,8.35-.53,.14-.13,.41,.13,.68,.13h3.15c1.64-.13,3.15-.26,4.79-.4,3.7-.13,7.39-.26,10.95-.4,1.23,0,2.46-.26,3.56-.13,1.1,0,2.05,.4,3.15,.53,.14-.53,.14-.93,.14-1.19,.14-3.44,.27-6.88,.41-10.32,0-1.06,0-2.12,.55-2.91,.55-1.19,1.1-2.12,.14-3.44-.27-.26,0-1.19,.27-1.46,1.09-1.32,.82-2.65,.68-4.1-.14-1.59-.27-3.18-.14-4.76,.14-1.46-.55-1.99-1.78-2.51-4.93-1.99-10.13-.4-15.06-1.46-2.46-.53-5.2-.26-7.67-.13-1.78,0-3.56,0-5.34,.4-1.51,.26-2.74,1.06-4.24,1.32-1.1,.26-2.33,.4-3.56,.53,.27-12.44,3.29-24.22,4.38-36.39h-6.85c.41-2.51,.55-4.9,1.1-7.15,.55-2.51,1.23-5.16,.41-7.67-.14-.26,0-.53,0-.79,.55-2.78,1.09-5.56,1.64-8.34,.55-3.18,1.92-5.69,5.2-6.62,3.15-.93,6.43-1.19,9.86-.66,3.01,.4,6.16,.53,9.17,.53,1.1,0,2.19,0,3.29,.4,1.1,.4,2.46,.66,3.42,.26,2.33-.93,4.65-.66,6.98-.4h1.51c1.64-3.57,.55-7.28,2.05-10.72,0-.13,.14-.4,0-.4-.96-1.32-.27-2.91,0-4.23,.68-4.23,1.64-8.6,2.46-12.84,.14-.66,.14-1.46,0-1.99-.14-.66-.55-1.59-1.23-1.72Z"/>
    </g>
  </g>
</svg>